<?xml version="1.0" standalone="no"?>
<!DOCTYPE svg PUBLIC "-//W3C//DTD SVG 20010904//EN"
 "http://www.w3.org/TR/2001/REC-SVG-20010904/DTD/svg10.dtd">
<svg version="1.0" xmlns="http://www.w3.org/2000/svg"
 width="210.000000pt" height="210.000000pt" viewBox="0 0 210.000000 210.000000"
 preserveAspectRatio="xMidYMid meet">
<metadata>
Created by potrace 1.14, written by Peter Selinger 2001-2017
</metadata>
<g transform="translate(0.000000,210.000000) scale(0.100000,-0.100000)"
fill="#000000" stroke="none">
<path d="M893 1953 c-22 -4 -33 -23 -14 -23 14 0 22 -103 8 -112 -7 -4 4 -8
26 -8 20 0 37 5 37 10 0 6 -7 10 -15 10 -8 0 -15 9 -15 20 0 27 16 25 52 -5
29 -25 78 -34 78 -15 0 6 -5 10 -11 10 -6 0 -24 9 -40 21 -23 16 -27 24 -19
34 16 20 3 52 -23 59 -23 6 -28 6 -64 -1z m65 -39 c2 -13 -4 -24 -14 -28 -21
-8 -21 -8 -29 27 -7 26 -5 28 16 25 15 -2 25 -11 27 -24z"/>
<path d="M1087 1953 c-16 -16 -5 -51 23 -71 17 -13 30 -27 30 -33 0 -19 -31
-21 -50 -4 -19 17 -20 17 -20 -4 0 -20 4 -22 43 -19 37 3 42 6 45 29 2 19 -5
33 -28 53 -31 25 -33 46 -5 46 8 0 19 -8 24 -17 9 -16 10 -16 11 5 0 18 -5 22
-33 22 -19 0 -37 -3 -40 -7z"/>
<path d="M1222 1938 c7 -17 -10 -96 -24 -114 -5 -8 -1 -14 14 -18 34 -9 43 -7
31 5 -12 12 2 95 19 117 7 8 7 12 0 12 -6 0 -18 3 -28 7 -13 5 -16 3 -12 -9z"/>
<path d="M753 1913 c-24 -8 -43 -19 -43 -24 0 -6 4 -8 9 -5 5 4 17 -17 26 -44
13 -40 14 -54 5 -65 -15 -19 -14 -19 46 1 61 21 69 27 55 51 -8 15 -10 15 -11
2 0 -9 -11 -21 -24 -27 -21 -9 -26 -8 -31 8 -8 26 3 43 26 37 15 -4 17 0 13
27 -11 64 -8 62 -71 39z m51 -37 c-4 -9 -14 -16 -23 -14 -23 5 -26 35 -4 40
24 6 35 -5 27 -26z"/>
<path d="M1316 1914 c-8 -22 -9 -22 19 -16 30 5 32 -10 9 -68 -10 -23 -23 -40
-33 -40 -11 -1 -8 -5 9 -15 33 -19 51 -19 44 0 -9 24 27 107 43 100 8 -3 17
-5 19 -5 2 0 4 -8 4 -17 0 -15 2 -16 10 -3 15 24 13 26 -37 45 -27 10 -52 22
-57 26 -14 13 -23 11 -30 -7z"/>
<path d="M645 1868 c-30 -16 -30 -17 -13 -31 16 -12 33 -77 20 -77 -17 1 -64
49 -58 59 10 15 -15 13 -36 -3 -20 -15 -23 -26 -8 -26 6 0 35 -18 65 -40 30
-22 57 -36 60 -30 3 5 1 36 -4 70 -6 33 -8 67 -4 75 6 18 4 18 -22 3z"/>
<path d="M1488 1790 c3 -55 2 -61 -19 -68 l-22 -9 24 -16 c26 -19 43 -22 34
-7 -12 20 16 48 60 61 48 14 55 23 29 37 -12 7 -22 4 -35 -9 -11 -11 -23 -19
-29 -19 -15 0 -12 47 3 53 8 3 6 10 -8 21 -34 27 -40 19 -37 -44z"/>
<path d="M475 1750 c-15 -16 -15 -20 -3 -20 19 0 81 -77 73 -90 -11 -18 12
-10 30 10 11 12 13 20 6 20 -17 0 -70 62 -71 83 0 23 -13 22 -35 -3z"/>
<path d="M407 1692 c-20 -22 -22 -36 -4 -29 7 2 25 -5 41 -18 l28 -22 -63 -7
c-35 -4 -69 -12 -76 -18 -15 -12 -18 -32 -3 -23 16 10 89 -55 83 -72 -9 -24
18 -11 36 17 15 22 15 23 0 18 -10 -4 -29 4 -50 22 l-34 29 72 1 c39 0 74 4
78 9 3 5 -15 26 -40 47 -27 21 -44 43 -41 51 8 19 -8 16 -27 -5z"/>
<path d="M892 1680 c-115 -31 -207 -84 -293 -170 -41 -41 -88 -97 -103 -125
-37 -68 -73 -177 -81 -251 -6 -57 -5 -63 16 -78 12 -8 47 -21 76 -27 48 -11
53 -14 46 -33 -4 -12 -7 -35 -6 -53 1 -24 -3 -32 -19 -36 -18 -5 -20 -11 -15
-47 6 -47 31 -90 56 -97 14 -3 71 -99 71 -118 0 -14 -41 15 -76 54 -46 51 -68
50 -36 -1 38 -60 71 -87 128 -104 40 -11 68 -28 100 -61 46 -45 123 -87 184
-99 51 -11 29 10 -38 34 -32 12 -69 33 -82 47 l-24 25 33 -6 c18 -4 44 -17 57
-30 29 -30 84 -33 91 -5 3 12 16 21 33 23 32 5 40 -9 40 -70 l0 -34 53 7 c97
11 152 27 232 65 118 57 214 145 280 256 37 64 75 185 81 268 l7 74 -49 -24
c-27 -13 -68 -28 -91 -33 -41 -8 -42 -8 -32 11 6 11 9 37 7 59 -3 30 0 39 14
42 14 4 18 15 18 47 0 55 -24 99 -58 106 -21 5 -33 19 -57 69 l-30 63 29 10
c25 10 31 8 53 -18 39 -46 73 -37 53 15 -5 14 -22 42 -36 61 l-26 34 -25 -20
c-13 -10 -45 -22 -69 -26 -40 -6 -47 -4 -62 17 -9 13 -34 44 -56 69 -39 44
-39 44 14 -6 48 -46 59 -51 88 -47 39 6 40 15 5 41 -36 26 -21 42 18 20 16 -9
29 -14 29 -9 0 14 -124 81 -185 100 -90 27 -139 35 -129 20 5 -9 2 -10 -12 -4
-40 17 -148 15 -222 -5z m213 -41 c6 -19 47 -39 78 -39 14 0 41 -18 67 -45 36
-36 40 -45 25 -45 -11 0 -29 -3 -40 -6 -16 -4 -23 2 -32 25 -19 51 -93 56 -93
6 0 -17 -5 -25 -18 -25 -10 0 -23 -5 -30 -12 -14 -14 -15 10 -6 114 6 62 8 66
25 55 11 -7 22 -19 24 -28z m108 14 c15 -7 25 -18 21 -24 -4 -7 -12 -5 -22 4
-10 8 -30 22 -47 31 -26 15 -27 16 -5 10 14 -4 38 -13 53 -21z m185 -280 c47
-101 71 -187 79 -285 4 -49 3 -68 -6 -68 -16 0 -44 68 -37 93 3 14 0 18 -13
14 -27 -7 -51 11 -67 49 -12 29 -12 40 -2 62 7 15 23 28 35 30 24 4 22 22 -15
106 -18 40 -25 46 -49 45 -63 -3 -78 -12 -78 -48 0 -43 -23 -59 -62 -46 -19 7
-31 21 -37 42 -8 27 -14 31 -39 31 -27 -1 -57 22 -57 44 0 4 51 9 113 11 61 1
130 4 153 5 l41 2 41 -87z m-758 -419 c6 -18 9 -42 6 -52 -5 -13 0 -18 17 -19
36 -3 69 -49 65 -92 -3 -31 -7 -36 -30 -39 -34 -4 -34 -8 -4 -75 25 -58 40
-67 109 -67 34 0 37 2 27 19 -11 22 9 51 36 51 29 0 74 -31 80 -55 4 -15 11
-22 20 -18 18 7 74 -16 74 -30 0 -12 -248 -3 -295 10 -60 18 -128 186 -142
351 -6 70 -5 76 10 64 9 -8 21 -29 27 -48z"/>
<path d="M1657 1622 c-25 -28 -21 -78 8 -107 31 -32 74 -33 103 -2 46 49 11
127 -57 127 -24 0 -44 -7 -54 -18z m108 -36 c8 -25 6 -31 -18 -52 -34 -29 -63
-31 -77 -5 -25 47 4 94 54 89 23 -2 33 -10 41 -32z"/>
<path d="M271 1514 c-9 -20 -9 -25 1 -21 17 6 87 -30 94 -48 8 -21 -14 -55
-37 -55 -25 0 -79 27 -79 40 0 6 -4 10 -8 10 -12 0 -34 -51 -26 -59 4 -3 9 0
11 6 3 9 15 7 43 -7 48 -25 72 -25 92 -2 41 46 27 97 -31 122 -17 7 -31 19
-31 26 0 23 -16 16 -29 -12z"/>
<path d="M1830 1486 c0 -12 -86 -53 -102 -48 -11 3 -10 -6 2 -28 10 -19 11
-19 30 0 32 32 44 25 43 -26 0 -6 8 -9 18 -7 23 6 23 7 3 38 -16 24 -15 26 18
29 7 1 15 -11 18 -26 4 -20 9 -25 18 -19 11 6 9 17 -9 54 -23 46 -39 60 -39
33z"/>
<path d="M144 1098 c-17 -19 -17 -21 -1 -15 14 5 17 0 17 -37 0 -26 -5 -46
-12 -49 -7 -3 3 -5 22 -5 19 0 29 2 23 5 -9 3 -13 26 -13 64 0 64 -7 71 -36
37z"/>
<path d="M233 1104 c-3 -9 -1 -25 6 -35 7 -12 7 -19 1 -19 -5 0 -10 -11 -10
-25 0 -31 32 -50 60 -35 16 9 19 20 17 68 -2 57 -2 57 -35 60 -23 2 -34 -2
-39 -14z m53 -5 c10 -17 -13 -36 -27 -22 -12 12 -4 33 11 33 5 0 12 -5 16 -11z
m4 -85 c0 -8 -9 -14 -20 -14 -19 0 -28 28 -13 43 9 9 33 -12 33 -29z"/>
<path d="M1833 1113 c-30 -4 -33 -7 -33 -39 0 -30 3 -34 19 -29 26 8 48 -20
31 -40 -9 -11 -17 -12 -30 -5 -11 6 -21 6 -24 1 -8 -13 5 -21 36 -21 20 0 32
7 39 24 14 30 -3 66 -31 66 -11 0 -20 5 -20 10 0 6 11 10 25 10 16 0 25 6 25
15 0 8 -1 14 -2 13 -2 0 -18 -3 -35 -5z"/>
<path d="M1940 1107 c-35 -17 -54 -61 -42 -95 16 -51 86 -36 80 17 -2 20 -10
27 -33 31 l-29 5 28 23 c34 26 31 36 -4 19z m15 -86 c0 -31 -21 -38 -35 -11
-13 24 -5 42 18 38 10 -2 17 -13 17 -27z"/>
<path d="M380 706 c0 -17 -99 -80 -123 -78 -17 1 -17 -1 -4 -21 16 -24 39 -35
35 -16 -3 10 73 72 79 65 2 -1 -11 -28 -28 -60 -17 -31 -29 -60 -25 -63 3 -3
31 -1 62 6 32 6 59 9 62 7 11 -11 -54 -56 -75 -52 -29 4 -29 -2 2 -39 16 -20
24 -25 25 -15 0 17 77 86 110 98 18 7 19 10 7 26 -12 16 -18 17 -75 6 -35 -7
-65 -10 -68 -7 -4 3 8 31 25 61 26 45 30 59 21 76 -12 23 -30 27 -30 6z"/>
<path d="M1703 695 c-19 -13 -83 -107 -83 -121 0 -4 6 -2 13 4 18 15 133 -61
129 -84 -6 -28 17 -5 48 49 38 67 38 100 1 138 -33 33 -74 38 -108 14z m89
-45 c24 -25 29 -36 23 -58 -12 -52 -25 -54 -87 -16 -32 20 -58 42 -58 49 0 18
48 55 72 55 11 0 33 -14 50 -30z"/>
<path d="M1582 544 c-24 -17 -30 -39 -8 -31 8 3 27 -10 45 -34 l32 -39 -28 1
c-15 0 -53 4 -83 8 -54 8 -90 0 -90 -19 0 -6 6 -10 14 -10 23 0 97 -95 90
-115 -6 -15 -4 -16 13 -7 11 6 25 18 33 26 10 14 9 16 -7 16 -10 0 -35 19 -55
43 l-36 43 62 -7 c33 -5 78 -11 99 -14 20 -3 37 -1 37 4 0 5 -22 36 -50 69
-37 44 -46 62 -38 70 17 17 -4 15 -30 -4z"/>
<path d="M538 435 c-37 -25 -74 -45 -83 -45 -20 0 -19 -10 3 -26 23 -18 43
-18 36 0 -3 8 3 19 15 26 30 16 65 -4 57 -33 -3 -12 -6 -26 -6 -30 0 -5 -10
-5 -21 -2 -28 9 -18 -7 21 -35 l29 -20 0 27 c0 16 9 59 20 97 19 64 20 86 3
86 -4 0 -37 -20 -74 -45z m46 -18 c-3 -9 -12 -13 -21 -10 -14 5 -13 8 2 20 22
15 28 12 19 -10z"/>
<path d="M708 393 c17 -7 15 -23 -9 -87 -12 -31 -28 -56 -35 -56 -27 0 -13
-17 23 -28 37 -11 58 -7 36 6 -16 10 -5 52 13 52 8 0 25 -22 38 -48 14 -28 35
-53 51 -60 35 -16 44 -8 17 15 -11 10 -28 35 -36 56 -13 31 -13 37 -1 37 24 0
37 35 24 64 -12 26 -73 57 -112 55 -12 0 -16 -3 -9 -6z m86 -46 c13 -21 -2
-50 -29 -55 -28 -6 -35 11 -19 46 14 35 30 38 48 9z"/>
<path d="M1329 383 c0 -5 0 -47 1 -95 1 -59 -2 -88 -10 -88 -6 0 -8 -4 -5 -10
4 -6 18 -4 38 7 25 13 28 18 15 21 -28 6 -24 56 6 70 20 9 27 7 40 -7 19 -21
20 -38 4 -44 -8 -3 -6 -6 4 -6 22 -1 68 20 68 31 0 4 -6 8 -14 8 -8 0 -39 27
-69 60 -49 54 -76 73 -78 53z m40 -57 c9 -10 8 -15 -4 -20 -10 -4 -15 1 -15
14 0 24 4 25 19 6z"/>
<path d="M907 318 c51 -56 73 -148 35 -148 -15 0 -15 -2 -2 -10 8 -5 31 -10
50 -10 30 1 32 2 17 11 -13 8 -17 18 -13 35 9 35 67 114 85 115 21 1 -17 17
-42 18 -13 1 -17 -4 -13 -17 4 -12 -2 -26 -17 -40 l-23 -22 -17 35 c-12 26
-13 35 -4 36 20 1 -26 18 -52 18 l-24 1 20 -22z"/>
<path d="M1143 333 c-32 -4 -47 -23 -20 -23 19 0 39 -129 23 -149 -9 -11 -5
-13 19 -8 17 4 46 9 67 13 25 4 38 12 42 27 8 30 -2 34 -20 9 -18 -27 -61 -29
-68 -4 -3 9 -8 39 -12 65 -5 40 -3 50 12 62 20 15 19 16 -43 8z"/>
</g>
</svg>
